{
  "accessors": [
    {
      "bufferView": 2,
      "componentType": 5126,
      "count": 10199,
      "max": [
        10.0,
        10.0,
        9.999999046325684
      ],
      "min": [
        -9.999996185302734,
        -10.0,
        -9.999995231628418
      ],
      "type": "VEC3"
    },
    {
      "bufferView": 2,
      "byteOffset": 122388,
      "componentType": 5126,
      "count": 10199,
      "max": [
        1.0,
        1.0,
        1.0
      ],
      "min": [
        -1.0,
        -1.0,
        -1.0
      ],
      "type": "VEC3"
    },
    {
      "bufferView": 1,
      "componentType": 5126,
      "count": 10199,
      "max": [
        0.9999993443489075,
        1.0
      ],
      "min": [
        -0.0,
        0.0
      ],
      "type": "VEC2"
    },
    {
      "bufferView": 0,
      "componentType": 5125,
      "count": 59400,
      "type": "SCALAR"
    },
    {
      "bufferView": 2,
      "byteOffset": 244776,
      "componentType": 5126,
      "count": 402,
      "max": [
        -3.759725570678711,
        8.280747405321493e-15,
        0.6516180038452148
      ],
      "min": [
        -8.97266960144043,
        -8.280747405321493e-15,
        -0.6516180038452148
      ],
      "type": "VEC3"
    },
    {
      "bufferView": 2,
      "byteOffset": 249600,
      "componentType": 5126,
      "count": 402,
      "max": [
        5.6604276895842656e-15,
        1.0,
        1.6871081964732644e-14
      ],
      "min": [
        -5.660430230683107e-15,
        1.0,
        -3.120908479564699e-13
      ],
      "type": "VEC3"
    },
    {
      "bufferView": 1,
      "byteOffset": 81592,
      "componentType": 5126,
      "count": 402,
      "max": [
        1.0,
        1.0
      ],
      "min": [
        -0.0,
        0.0
      ],
      "type": "VEC2"
    },
    {
      "bufferView": 1,
      "byteOffset": 84808,
      "componentType": 5126,
      "count": 402,
      "max": [
        1.0,
        1.0
      ],
      "min": [
        -0.0,
        0.0
      ],
      "type": "VEC2"
    },
    {
      "bufferView": 1,
      "byteOffset": 88024,
      "componentType": 5126,
      "count": 402,
      "max": [
        1.0,
        1.0
      ],
      "min": [
        -0.0,
        0.0
      ],
      "type": "VEC2"
    },
    {
      "bufferView": 0,
      "byteOffset": 237600,
      "componentType": 5125,
      "count": 1200,
      "type": "SCALAR"
    }
  ],
  "asset": {
    "extras": {
      "author": "HD 188753 B (https://sketchfab.com/x3dv3s)",
      "license": "CC-BY-4.0 (http://creativecommons.org/licenses/by/4.0/)",
      "source": "https://sketchfab.com/3d-models/saturn-paint-3d-ea6c00e2858c48fc9755f339bfe58a40",
      "title": "Saturn Paint 3D"
    },
    "generator": "Sketchfab-16.33.0",
    "version": "2.0"
  },
  "bufferViews": [
    {
      "buffer": 0,
      "byteLength": 242400,
      "name": "floatBufferViews",
      "target": 34963
    },
    {
      "buffer": 0,
      "byteLength": 91240,
      "byteOffset": 242400,
      "byteStride": 8,
      "name": "floatBufferViews",
      "target": 34962
    },
    {
      "buffer": 0,
      "byteLength": 254424,
      "byteOffset": 333640,
      "byteStride": 12,
      "name": "floatBufferViews",
      "target": 34962
    }
  ],
  "buffers": [
    {
      "byteLength": 588064,
      "uri": "scene.bin"
    }
  ],
  "extensionsRequired": [
    "KHR_materials_pbrSpecularGlossiness"
  ],
  "extensionsUsed": [
    "KHR_materials_pbrSpecularGlossiness"
  ],
  "images": [
    {
      "uri": "textures/material_diffuse.png"
    },
    {
      "uri": "textures/material_1_diffuse.png"
    },
    {
      "uri": "textures/material_1_specularGlossiness.png"
    }
  ],
  "materials": [
    {
      "doubleSided": true,
      "extensions": {
        "KHR_materials_pbrSpecularGlossiness": {
          "diffuseFactor": [
            1.0,
            1.0,
            1.0,
            1.0
          ],
          "diffuseTexture": {
            "index": 0
          },
          "glossinessFactor": 0.117647,
          "specularFactor": [
            0.0941176,
            0.0941176,
            0.0941176
          ]
        }
      },
      "name": "material"
    },
    {
      "alphaMode": "MASK",
      "doubleSided": true,
      "extensions": {
        "KHR_materials_pbrSpecularGlossiness": {
          "diffuseFactor": [
            1.0,
            1.0,
            1.0,
            1.0
          ],
          "diffuseTexture": {
            "index": 1
          },
          "glossinessFactor": 1.0,
          "specularFactor": [
            1.0,
            1.0,
            1.0
          ],
          "specularGlossinessTexture": {
            "index": 2
          }
        }
      },
      "name": "material_1"
    }
  ],
  "meshes": [
    {
      "name": "Object_0",
      "primitives": [
        {
          "attributes": {
            "NORMAL": 1,
            "POSITION": 0,
            "TEXCOORD_0": 2
          },
          "indices": 3,
          "material": 0,
          "mode": 4
        }
      ]
    },
    {
      "name": "Object_1",
      "primitives": [
        {
          "attributes": {
            "NORMAL": 5,
            "POSITION": 4,
            "TEXCOORD_0": 6,
            "TEXCOORD_1": 7,
            "TEXCOORD_2": 8
          },
          "indices": 9,
          "material": 1,
          "mode": 4
        }
      ]
    }
  ],
  "nodes": [
    {
      "children": [
        1
      ],
      "matrix": [
        1.0,
        0.0,
        0.0,
        0.0,
        0.0,
        2.220446049250313e-16,
        -1.0,
        0.0,
        0.0,
        1.0,
        2.220446049250313e-16,
        0.0,
        0.0,
        0.0,
        0.0,
        1.0
      ],
      "name": "Sketchfab_model"
    },
    {
      "children": [
        2
      ],
      "name": "root"
    },
    {
      "children": [
        3
      ],
      "matrix": [
        1.0,
        0.0,
        0.0,
        0.0,
        0.0,
        2.220446049250313e-16,
        1.0,
        0.0,
        0.0,
        -1.0,
        2.220446049250313e-16,
        0.0,
        0.0,
        0.0,
        0.0,
        1.0
      ],
      "name": "GLTF_SceneRootNode"
    },
    {
      "children": [
        4
      ],
      "name": "root_1"
    },
    {
      "children": [
        5,
        7
      ],
      "matrix": [
        0.0021530722733587027,
        0.0,
        -0.0,
        0.0,
        0.0,
        0.0021000844385815004,
        0.00047472683211909864,
        0.0,
        0.0,
        -0.00047472683211909864,
        0.0021000844385815004,
        0.0,
        0.07222998887300491,
        0.12123582512140274,
        -0.4949427843093872,
        1.0
      ],
      "name": "node_id66_2"
    },
    {
      "children": [
        6
      ],
      "matrix": [
        9.559020042419434,
        0.0,
        0.0,
        0.0,
        0.0,
        9.559020042419434,
        0.0,
        0.0,
        0.0,
        0.0,
        9.559020042419434,
        0.0,
        -0.00010687779285944998,
        0.0,
        255.9990234375,
        1.0
      ],
      "name": "node_id62_0"
    },
    {
      "mesh": 0,
      "name": "Object_6"
    },
    {
      "children": [
        8
      ],
      "matrix": [
        98.21705627441406,
        0.0,
        0.0,
        0.0,
        0.0,
        98.21705627441406,
        0.0,
        0.0,
        0.0,
        0.0,
        392.86822509765625,
        0.0,
        625.2691040039063,
        0.0,
        255.9990234375,
        1.0
      ],
      "name": "node_id64_3"
    },
    {
      "mesh": 1,
      "name": "Object_8"
    }
  ],
  "samplers": [
    {
      "magFilter": 9729,
      "minFilter": 9987,
      "wrapS": 10497,
      "wrapT": 10497
    }
  ],
  "scene": 0,
  "scenes": [
    {
      "name": "Sketchfab_Scene",
      "nodes": [
        0
      ]
    }
  ],
  "textures": [
    {
      "sampler": 0,
      "source": 0
    },
    {
      "sampler": 0,
      "source": 1
    },
    {
      "sampler": 0,
      "source": 2
    }
  ]
}
